<?xml version="1.0" encoding="utf-8"?>
<!-- Generator: Adobe Illustrator 21.0.0, SVG Export Plug-In . SVG Version: 6.00 Build 0)  -->
<svg version="1.0" id="Layer_1" xmlns="http://www.w3.org/2000/svg" xmlns:xlink="http://www.w3.org/1999/xlink" x="0px" y="0px"
	 viewBox="0 0 24 24" enable-background="new 0 0 24 24" xml:space="preserve">
<g>
	<path d="M21,13.6V4.5C21,3.7,20.3,3,19.5,3H17V1.5C17,0.7,16.3,0,15.5,0h-1C13.7,0,13,0.7,13,1.5V3H8V1.5C8,0.7,7.3,0,6.5,0h-1
		C4.7,0,4,0.7,4,1.5V3H1.5C0.7,3,0,3.7,0,4.5v16C0,21.3,0.7,22,1.5,22h12.8c1,1.2,2.5,2,4.2,2c3,0,5.5-2.5,5.5-5.5
		C24,16.4,22.8,14.5,21,13.6z M13.6,16H11v-4h4v2.3C14.4,14.7,14,15.3,13.6,16z M6,16v-4h4v4H6z M10,17v4H6v-4H10z M15,7v4h-4V7H15z
		 M10,11H6V7h4V11z M5,11H1V7h4V11z M5,12v4H1v-4H5z M16,12h4v1.2c-0.5-0.1-1-0.2-1.5-0.2c-0.9,0-1.7,0.2-2.5,0.6V12z M20,11h-4V7h4
		V11z M14,1.5C14,1.2,14.2,1,14.5,1h1C15.8,1,16,1.2,16,1.5v2C16,3.8,15.8,4,15.5,4h-1C14.2,4,14,3.8,14,3.5V1.5z M5,1.5
		C5,1.2,5.2,1,5.5,1h1C6.8,1,7,1.2,7,1.5v2C7,3.8,6.8,4,6.5,4h-1C5.2,4,5,3.8,5,3.5V1.5z M1.5,4h2.6c0.2,0.6,0.8,1,1.4,1h1
		c0.7,0,1.2-0.4,1.4-1h5.2c0.2,0.6,0.8,1,1.4,1h1c0.7,0,1.2-0.4,1.4-1h2.6C19.8,4,20,4.2,20,4.5V6H1V4.5C1,4.2,1.2,4,1.5,4z M1,20.5
		V17h4v4H1.5C1.2,21,1,20.8,1,20.5z M11,21v-4h2.2c-0.1,0.5-0.2,1-0.2,1.5c0,0.9,0.2,1.7,0.6,2.5H11z M18.5,23C16,23,14,21,14,18.5
		s2-4.5,4.5-4.5s4.5,2,4.5,4.5S21,23,18.5,23z"/>
	<g>
		<path d="M17.5,21c-0.1,0-0.3-0.1-0.4-0.1l-2-2c-0.2-0.2-0.2-0.5,0-0.7s0.5-0.2,0.7,0l1.6,1.6l2.7-3.5c0.2-0.2,0.5-0.3,0.7-0.1
			c0.2,0.2,0.3,0.5,0.1,0.7l-3,4C17.8,20.9,17.7,21,17.5,21C17.5,21,17.5,21,17.5,21z"/>
	</g>
</g>
</svg>
