<?xml version="1.0" encoding="utf-8"?>
<!-- Generator: Adobe Illustrator 21.0.0, SVG Export Plug-In . SVG Version: 6.00 Build 0)  -->
<svg version="1.0" id="Layer_1" xmlns="http://www.w3.org/2000/svg" xmlns:xlink="http://www.w3.org/1999/xlink" x="0px" y="0px"
	 viewBox="0 0 24 24" enable-background="new 0 0 24 24" xml:space="preserve">
<g>
	<g>
		<path d="M8.5,5h-4C4.2,5,4,4.8,4,4.5S4.2,4,4.5,4h4C8.8,4,9,4.2,9,4.5S8.8,5,8.5,5z"/>
	</g>
	<g>
		<path d="M6.5,7h-2C4.2,7,4,6.8,4,6.5S4.2,6,4.5,6h2C6.8,6,7,6.2,7,6.5S6.8,7,6.5,7z"/>
	</g>
	<g>
		<path d="M8.5,19h-4C4.2,19,4,18.8,4,18.5S4.2,18,4.5,18h4C8.8,18,9,18.2,9,18.5S8.8,19,8.5,19z"/>
	</g>
	<g>
		<path d="M15.5,19h-2c-0.3,0-0.5-0.2-0.5-0.5s0.2-0.5,0.5-0.5h2c0.3,0,0.5,0.2,0.5,0.5S15.8,19,15.5,19z"/>
	</g>
	<g>
		<path d="M13.5,5h-3C10.2,5,10,4.8,10,4.5S10.2,4,10.5,4h3C13.8,4,14,4.2,14,4.5S13.8,5,13.5,5z"/>
	</g>
	<path d="M20.5,4h-1c-0.1,0-0.1,0-0.2,0L18,4.5v-3C18,0.7,17.3,0,16.5,0h-13C2.7,0,2,0.7,2,1.5v21C2,23.3,2.7,24,3.5,24h13
		c0.8,0,1.5-0.7,1.5-1.5v-7l1.3,0.4c0.1,0,0.1,0,0.2,0h1c0.8,0,1.5-0.7,1.5-1.5v-9C22,4.7,21.3,4,20.5,4z M8,1h4v0.5
		C12,1.8,11.8,2,11.5,2h-3C8.2,2,8,1.8,8,1.5V1z M3.5,1H7v0.5C7,2.3,7.7,3,8.5,3h3C12.3,3,13,2.3,13,1.5V1h3.5C16.8,1,17,1.2,17,1.5
		v3.3L10.4,7H8.5C8.2,7,8,7.2,8,7.5V8H6.5C6.2,8,6,8.2,6,8.5V9H5.5C4.7,9,4,9.7,4,10.5v5C4,16.3,4.7,17,5.5,17h4l0.6,1.7
		c0.1,0.2,0.3,0.3,0.5,0.3h1c0.1,0,0.3-0.1,0.4-0.2c0.1-0.1,0.1-0.3,0.1-0.4L11.8,17h2.7c0.8,0,1.5-0.7,1.5-1.5v-0.6l1,0.3V20H3V1.5
		C3,1.2,3.2,1,3.5,1z M6.5,12H8v0.5c0,0.1,0,0.1,0,0.2L9.1,16H5.5C5.2,16,5,15.8,5,15.5v-5C5,10.2,5.2,10,5.5,10H6v1.5
		C6,11.8,6.2,12,6.5,12z M7,11V9h1v2H7z M9,12V8h1v4H9z M10.1,13l0.8,5h0l-1.7-5H10.1z M11.1,13.2l3.9,1.3v1c0,0.3-0.2,0.5-0.5,0.5
		h-2.9L11.1,13.2z M16.5,23h-13C3.2,23,3,22.8,3,22.5V21h14v1.5C17,22.8,16.8,23,16.5,23z M19,14.8l-8-2.7V7.9l8-2.7V14.8z M21,14.5
		c0,0.3-0.2,0.5-0.5,0.5H20V5h0.5C20.8,5,21,5.2,21,5.5V14.5z"/>
</g>
</svg>
