<?xml version="1.0" encoding="utf-8"?>
<!-- Generator: Adobe Illustrator 21.0.0, SVG Export Plug-In . SVG Version: 6.00 Build 0)  -->
<svg version="1.0" id="Layer_1" xmlns="http://www.w3.org/2000/svg" xmlns:xlink="http://www.w3.org/1999/xlink" x="0px" y="0px"
	 viewBox="0 0 24 24" enable-background="new 0 0 24 24" xml:space="preserve">
<g>
	<g>
		<path d="M22.5,23h-21C0.7,23,0,22.3,0,21.5v-2C0,19.2,0.2,19,0.5,19h8C8.8,19,9,19.2,9,19.5V20h6v-0.5c0-0.3,0.2-0.5,0.5-0.5h8
			c0.3,0,0.5,0.2,0.5,0.5v2C24,22.3,23.3,23,22.5,23z M1,20v1.5C1,21.8,1.2,22,1.5,22h21c0.3,0,0.5-0.2,0.5-0.5V20h-7v0.5
			c0,0.3-0.2,0.5-0.5,0.5h-7C8.2,21,8,20.8,8,20.5L8,20H1z"/>
	</g>
	<g>
		<path d="M11,7C9.9,7,9,6.1,9,5s0.9-2,2-2s2,0.9,2,2S12.1,7,11,7z M11,4c-0.6,0-1,0.4-1,1s0.4,1,1,1s1-0.4,1-1S11.6,4,11,4z"/>
	</g>
	<g>
		<path d="M18,11c-1.1,0-2-0.9-2-2s0.9-2,2-2s2,0.9,2,2S19.1,11,18,11z M18,8c-0.6,0-1,0.4-1,1s0.4,1,1,1s1-0.4,1-1S18.6,8,18,8z"/>
	</g>
	<path d="M22.5,3H15V2.5C15,1.7,14.3,1,13.5,1h-10C2.7,1,2,1.7,2,2.5V3H1.5C0.7,3,0,3.7,0,4.5v13C0,17.8,0.2,18,0.5,18h23
		c0.3,0,0.5-0.2,0.5-0.5v-13C24,3.7,23.3,3,22.5,3z M15,9c0-0.3-0.1-0.5-0.2-0.8C14.9,8,15,7.8,15,7.5V6h5.5C20.8,6,21,6.2,21,6.5
		v7.8l-1.9-1.9c-0.3-0.3-0.7-0.4-1.1-0.4h-7.6c-0.3,0-0.5-0.2-0.5-0.5V9h1c0,1.1,0.9,2,2,2C14.1,11,15,10.1,15,9z M12,9h1.5
		c0.2,0,0.3,0,0.5-0.1c0,0,0,0.1,0,0.1c0,0.6-0.4,1-1,1C12.4,10,12,9.6,12,9z M3,2.5C3,2.2,3.2,2,3.5,2h10C13.8,2,14,2.2,14,2.5v5
		C14,7.8,13.8,8,13.5,8H5.9C5.5,8,5.1,8.2,4.9,8.4L3,10.3V2.5z M23,17H1V4.5C1,4.2,1.2,4,1.5,4H2v7.5c0,0.2,0.1,0.4,0.3,0.5
		c0.1,0,0.1,0,0.2,0c0.1,0,0.3-0.1,0.4-0.1l2.7-2.7C5.7,9.1,5.8,9,5.9,9H9v2.5c0,0.8,0.7,1.5,1.5,1.5h7.6c0.1,0,0.3,0.1,0.4,0.1
		l2.7,2.7c0.1,0.1,0.2,0.1,0.4,0.1c0.1,0,0.1,0,0.2,0c0.2-0.1,0.3-0.3,0.3-0.5v-9C22,5.7,21.3,5,20.5,5H15V4h7.5
		C22.8,4,23,4.2,23,4.5V17z"/>
	<g>
		<path d="M6,7C4.9,7,4,6.1,4,5s0.9-2,2-2s2,0.9,2,2S7.1,7,6,7z M6,4C5.4,4,5,4.4,5,5s0.4,1,1,1s1-0.4,1-1S6.6,4,6,4z"/>
	</g>
	<g>
		<path d="M7.5,12h-2C5.2,12,5,11.8,5,11.5S5.2,11,5.5,11h2C7.8,11,8,11.2,8,11.5S7.8,12,7.5,12z"/>
	</g>
	<g>
		<path d="M8.5,14h-6C2.2,14,2,13.8,2,13.5S2.2,13,2.5,13h6C8.8,13,9,13.2,9,13.5S8.8,14,8.5,14z"/>
	</g>
	<g>
		<path d="M5.5,16h-3C2.2,16,2,15.8,2,15.5S2.2,15,2.5,15h3C5.8,15,6,15.2,6,15.5S5.8,16,5.5,16z"/>
	</g>
	<g>
		<path d="M10.5,16h-3C7.2,16,7,15.8,7,15.5S7.2,15,7.5,15h3c0.3,0,0.5,0.2,0.5,0.5S10.8,16,10.5,16z"/>
	</g>
	<g>
		<path d="M18.5,16h-6c-0.3,0-0.5-0.2-0.5-0.5s0.2-0.5,0.5-0.5h6c0.3,0,0.5,0.2,0.5,0.5S18.8,16,18.5,16z"/>
	</g>
</g>
</svg>
