<?xml version="1.0" encoding="utf-8"?>
<!-- Generator: Adobe Illustrator 21.0.0, SVG Export Plug-In . SVG Version: 6.00 Build 0)  -->
<svg version="1.0" id="Layer_1" xmlns="http://www.w3.org/2000/svg" xmlns:xlink="http://www.w3.org/1999/xlink" x="0px" y="0px"
	 viewBox="0 0 24 24" enable-background="new 0 0 24 24" xml:space="preserve">
<path d="M23.4,13.3C23,13.1,22.4,13,22,13.2l-1,0.4v-12C21,0.7,20.3,0,19.5,0h-2C16.7,0,16,0.7,16,1.5V3h-2.5C12.7,3,12,3.7,12,4.5
	V8H9.5C8.7,8,8,8.7,8,9.5v5.2l-3,0.7v-0.3c0-0.6-0.3-1.1-0.8-1.3L3,13.2C2.8,12.5,2.2,12,1.5,12h-1C0.2,12,0,12.2,0,12.5v11
	C0,23.8,0.2,24,0.5,24h1c0.7,0,1.3-0.5,1.5-1.2l1.2-0.6C4.6,22,4.9,21.5,5,21l4.8,2.8c0.2,0.1,0.5,0.2,0.8,0.2
	c0.2,0,0.5-0.1,0.7-0.2l12-6.4c0.5-0.3,0.8-0.8,0.8-1.3v-1.5C24,14.1,23.8,13.6,23.4,13.3z M2,22.5C2,22.8,1.8,23,1.5,23H1V13h0.5
	C1.8,13,2,13.2,2,13.5V22.5z M4,20.9c0,0.2-0.1,0.4-0.3,0.4L3,21.7v-7.4l0.7,0.4C3.9,14.8,4,14.9,4,15.1V20.9z M17,1.5
	C17,1.2,17.2,1,17.5,1h2C19.8,1,20,1.2,20,1.5v12.4L17,15V1.5z M13,4.5C13,4.2,13.2,4,13.5,4H16v11.4l-1.4,0.5l-0.3-1.1
	c-0.2-0.6-0.7-1-1.2-1.1V4.5z M9,9.5C9,9.2,9.2,9,9.5,9H12v4.8l-3,0.7V9.5z M23,16c0,0.2-0.1,0.4-0.3,0.4l-12,6.5
	c-0.1,0.1-0.3,0.1-0.5,0L5,19.9v-3.5l7.7-1.7c0.3-0.1,0.5,0.1,0.6,0.4l0.5,1.6c0,0.1,0,0.3,0,0.4c-0.1,0.1-0.2,0.2-0.3,0.2l-3,0.7
	c-0.3,0.1-0.4,0.3-0.4,0.6c0.1,0.2,0.3,0.4,0.5,0.4c0,0,0.1,0,0.1,0l3-0.7c0.4-0.1,0.7-0.4,0.9-0.7c0.1-0.2,0.2-0.4,0.2-0.6l7.6-2.8
	c0.2-0.1,0.3,0,0.5,0.1c0.1,0.1,0.2,0.2,0.2,0.4V16z"/>
</svg>
