<?xml version="1.0" encoding="utf-8"?>
<!-- Generator: Adobe Illustrator 21.0.0, SVG Export Plug-In . SVG Version: 6.00 Build 0)  -->
<svg version="1.0" id="Layer_1" xmlns="http://www.w3.org/2000/svg" xmlns:xlink="http://www.w3.org/1999/xlink" x="0px" y="0px"
	 viewBox="0 0 24 24" enable-background="new 0 0 24 24" xml:space="preserve">
<path d="M23.1,8.1C22.9,8,22.7,8,22.5,8h-2.9l-1.2-6.8c-0.1-0.4-0.3-0.7-0.6-1C17.5,0,17.1,0,16.7,0l-1,0.2c-0.1,0-0.1,0-0.2,0.1
	L7.3,4.7L5.4,5.1C5.1,5.1,4.9,5.4,5,5.6l0.1,0.5L3.6,6.4c-0.1,0-0.2,0.1-0.3,0.2C3.2,6.7,3.2,6.8,3.2,7l0.2,1H1.5
	C1.3,8,1.1,8,0.9,8.1C0.3,8.4,0,8.9,0,9.5v13c0,0.2,0.1,0.5,0.1,0.6C0.4,23.7,0.9,24,1.5,24h21c0.6,0,1.1-0.3,1.3-0.8
	c0.1-0.2,0.2-0.4,0.2-0.7v-13C24,8.9,23.7,8.4,23.1,8.1z M21.8,9l-1.9,1.9c0.1-0.2,0.1-0.5,0.1-0.8L19.8,9H21.8z M10.8,15.7l-1.7-5
	l8.6,1.3c0.1,0,0.1,0,0.2,0l1-0.2c0.1,0,0.2-0.1,0.3-0.1l-6.7,6.6c-0.2,0.2-0.5,0.2-0.6,0l-1.9-1.9l0.7-0.1c0.1,0,0.3-0.1,0.3-0.2
	C10.8,16,10.9,15.8,10.8,15.7z M16.9,1c0.1,0,0.3,0,0.4,0.1c0.1,0.1,0.2,0.2,0.2,0.3l1.6,8.9c0,0.1,0,0.3-0.1,0.4s-0.2,0.2-0.3,0.2
	l-0.5,0.1l-1.7-9.8L16.9,1z M15.4,1.5l1.7,9.5L8.7,9.7L8,5.5L15.4,1.5z M9.7,15.5L9.7,15.5l-2.6-4.6L8,10.7L9.7,15.5z M7,5.8
	l0.7,3.9l-1,0.2L6,6L7,5.8z M5.2,7.1l0.3,2l-1,0.2l-0.3-2L5.2,7.1z M3.5,9l0.2,0.9c0,0.2,0.3,0.4,0.5,0.4c0,0,0.1,0,0.1,0l1.5-0.3
	l0.1,0.5c0,0.1,0,0.1,0.1,0.2l2.3,4.2L2.2,9H3.5z M1,9.5c0-0.1,0-0.2,0.1-0.2l7.2,7.1L1,22V9.5z M22.5,23h-21c0,0-0.1,0-0.1,0
	L9,17.1l2,2c0.3,0.2,0.6,0.4,1,0.4c0.4,0,0.7-0.1,1-0.4l2-2l7.6,5.8C22.6,23,22.5,23,22.5,23z M23,22l-7.3-5.6l7.2-7.1
	C23,9.3,23,9.4,23,9.5V22z"/>
</svg>
