<?xml version="1.0" encoding="utf-8"?>
<!-- Generator: Adobe Illustrator 21.0.0, SVG Export Plug-In . SVG Version: 6.00 Build 0)  -->
<svg version="1.0" id="Layer_1" xmlns="http://www.w3.org/2000/svg" xmlns:xlink="http://www.w3.org/1999/xlink" x="0px" y="0px"
	 viewBox="0 0 24 24" enable-background="new 0 0 24 24" xml:space="preserve">
<g>
	<path d="M22.5,2h-21C0.7,2,0,2.7,0,3.5v13C0,17.3,0.7,18,1.5,18H9v3H7.5C7.2,21,7,21.2,7,21.5S7.2,22,7.5,22h9
		c0.3,0,0.5-0.2,0.5-0.5S16.8,21,16.5,21H15v-3h7.5c0.8,0,1.5-0.7,1.5-1.5v-13C24,2.7,23.3,2,22.5,2z M14,21h-4v-3h4V21z M23,16.5
		c0,0.3-0.2,0.5-0.5,0.5h-21C1.2,17,1,16.8,1,16.5V15h22V16.5z M12,12c-1.1,0-2,0.9-2,2H5c0.3-3.6,3.3-6.5,7-6.5
		c1.2,0,2.2,0.3,3.2,0.8l-2.7,3.8C12.4,12,12.2,12,12,12z M11,14c0-0.6,0.4-1,1-1s1,0.4,1,1H11z M13.4,12.6l2.6-3.8
		c1.7,1.2,2.8,3.1,2.9,5.2h-5C14,13.4,13.8,12.9,13.4,12.6z M20,14c-0.3-4.2-3.7-7.5-8-7.5S4.3,9.8,4,14H3c0.3-4.7,4.2-8.5,9-8.5
		c4.8,0,8.7,3.8,9,8.5H20z M23,14h-1c-0.3-5.3-4.6-9.5-10-9.5C6.7,4.5,2.3,8.7,2,14H1V3.5C1,3.2,1.2,3,1.5,3h21
		C22.8,3,23,3.2,23,3.5V14z"/>
	<g>
		<path d="M5.5,5h-3C2.2,5,2,4.8,2,4.5S2.2,4,2.5,4h3C5.8,4,6,4.2,6,4.5S5.8,5,5.5,5z"/>
	</g>
	<g>
		<path d="M3.5,7h-1C2.2,7,2,6.8,2,6.5S2.2,6,2.5,6h1C3.8,6,4,6.2,4,6.5S3.8,7,3.5,7z"/>
	</g>
	<g>
		<path d="M21.5,5h-3C18.2,5,18,4.8,18,4.5S18.2,4,18.5,4h3C21.8,4,22,4.2,22,4.5S21.8,5,21.5,5z"/>
	</g>
	<g>
		<path d="M21.5,7h-1C20.2,7,20,6.8,20,6.5S20.2,6,20.5,6h1C21.8,6,22,6.2,22,6.5S21.8,7,21.5,7z"/>
	</g>
</g>
</svg>
