<?xml version="1.0" encoding="utf-8"?>
<!-- Generator: Adobe Illustrator 21.0.0, SVG Export Plug-In . SVG Version: 6.00 Build 0)  -->
<svg version="1.0" id="Layer_1" xmlns="http://www.w3.org/2000/svg" xmlns:xlink="http://www.w3.org/1999/xlink" x="0px" y="0px"
	 viewBox="0 0 24 24" enable-background="new 0 0 24 24" xml:space="preserve">
<path d="M23.6,20.9L20,17.3c-0.6-0.6-1.5-0.6-2,0l-1.4-1.4c1.5-1.7,2.4-3.9,2.4-6.3C19,4.3,14.7,0,9.5,0S0,4.3,0,9.5S4.3,19,9.5,19
	c2.4,0,4.7-0.9,6.3-2.4l1.4,1.4c-0.5,0.6-0.5,1.5,0,2l3.6,3.6c0.3,0.3,0.7,0.4,1.1,0.4s0.8-0.1,1.1-0.4l0.6-0.6
	C24.1,22.4,24.1,21.4,23.6,20.9z M5.8,1.9l2.1,1.8L7.1,5.3C7,5.4,7,5.6,7,5.7S7.2,5.9,7.3,6l2.5,0.8l-0.7,2L7.7,8.1
	C7.6,8,7.4,8,7.3,8S7.1,8.2,7,8.3L6.1,11H5c-0.2,0-0.3,0.1-0.4,0.2c-0.1,0.1-0.1,0.3-0.1,0.4l0.4,1.7l-0.4,0.4l-1.6-1.6
	C2.8,12.1,2.6,12,2.5,12H1.4C1.1,11.2,1,10.4,1,9.5C1,6.2,3,3.3,5.8,1.9z M1.8,13h0.5l1.9,1.9C4.2,15,4.4,15,4.5,15s0.3,0,0.4-0.1
	l1-1C6,13.7,6,13.5,6,13.4L5.6,12h0.9c0.2,0,0.4-0.1,0.5-0.3l0.8-2.5l1.5,0.7C9.4,10,9.6,10,9.7,10C9.8,9.9,9.9,9.8,10,9.7l1-3
	c0.1-0.3-0.1-0.5-0.3-0.6L8.2,5.2l0.7-1.5C9.1,3.5,9,3.3,8.8,3.1l-2-1.7C7.7,1.2,8.6,1,9.5,1c4.1,0,7.5,2.9,8.3,6.8l-2.5,1.3
	C15.1,9.1,15,9.3,15,9.5v0.8L14.3,11h-1.8c-0.2,0-0.4,0.1-0.4,0.3l-1,2c-0.1,0.2-0.1,0.4,0.1,0.6l1,1c0.1,0.1,0.2,0.1,0.4,0.1h0.6
	l0.6,1.8c-1.3,0.7-2.7,1.2-4.3,1.2C6.1,18,3.1,15.9,1.8,13z M14.6,16.3L14,14.3c-0.1-0.2-0.3-0.3-0.5-0.3h-0.8l-0.6-0.6l0.7-1.4h1.7
	c0.1,0,0.3-0.1,0.4-0.1l1-1c0.1-0.1,0.1-0.2,0.1-0.4V9.8l2-1c0,0.2,0,0.4,0,0.7C18,12.3,16.7,14.7,14.6,16.3z M22.9,22.3l-0.6,0.6
	c-0.2,0.2-0.5,0.2-0.7,0L18,19.3c-0.2-0.2-0.2-0.5,0-0.7l0.6-0.6c0.1-0.1,0.2-0.1,0.4-0.1s0.3,0,0.4,0.1l3.6,3.6
	C23,21.8,23,22.1,22.9,22.3z"/>
</svg>

