<?xml version="1.0" encoding="utf-8"?>
<!-- Generator: Adobe Illustrator 21.0.0, SVG Export Plug-In . SVG Version: 6.00 Build 0)  -->
<svg version="1.0" id="Layer_1" xmlns="http://www.w3.org/2000/svg" xmlns:xlink="http://www.w3.org/1999/xlink" x="0px" y="0px"
	 viewBox="0 0 24 24" enable-background="new 0 0 24 24" xml:space="preserve">
<g>
	<g>
		<path d="M20.5,5C19.7,5,19,4.3,19,3.5S19.7,2,20.5,2S22,2.7,22,3.5S21.3,5,20.5,5z M20.5,3C20.2,3,20,3.2,20,3.5S20.2,4,20.5,4
			S21,3.8,21,3.5S20.8,3,20.5,3z"/>
	</g>
	<g>
		<path d="M16.5,5C15.7,5,15,4.3,15,3.5S15.7,2,16.5,2S18,2.7,18,3.5S17.3,5,16.5,5z M16.5,3C16.2,3,16,3.2,16,3.5S16.2,4,16.5,4
			S17,3.8,17,3.5S16.8,3,16.5,3z"/>
	</g>
	<g>
		<path d="M12.5,5C11.7,5,11,4.3,11,3.5S11.7,2,12.5,2S14,2.7,14,3.5S13.3,5,12.5,5z M12.5,3C12.2,3,12,3.2,12,3.5S12.2,4,12.5,4
			S13,3.8,13,3.5S12.8,3,12.5,3z"/>
	</g>
	<path d="M22.5,0h-21C0.7,0,0,0.7,0,1.5v17C0,19.3,0.7,20,1.5,20H10v3.5c0,0.3,0.2,0.5,0.5,0.5h2c0.7,0,1.2-0.4,1.4-1h8.6
		c0.8,0,1.5-0.7,1.5-1.5v-20C24,0.7,23.3,0,22.5,0z M1.5,1h21C22.8,1,23,1.2,23,1.5V6H1V1.5C1,1.2,1.2,1,1.5,1z M13,22.5
		c0,0.3-0.2,0.5-0.5,0.5H11v-9h1.5c0.3,0,0.5,0.2,0.5,0.5V22.5z M23,21.5c0,0.3-0.2,0.5-0.5,0.5H14v-7h1.5c0.8,0,1.5-0.7,1.5-1.5v-2
		c0-0.3,0.2-0.5,0.5-0.5h1c0.3,0,0.5,0.2,0.5,0.5v2c0,0.8,0.7,1.5,1.5,1.5h2c0.3,0,0.5,0.2,0.5,0.5V21.5z M16.1,11H3.5
		C3.2,11,3,10.8,3,10.5v-1C3,9.2,3.2,9,3.5,9h17C20.8,9,21,9.2,21,9.5v1c0,0.3-0.2,0.5-0.5,0.5h-0.6c-0.2-0.6-0.8-1-1.4-1h-1
		C16.8,10,16.3,10.4,16.1,11z M22.5,14h-2c-0.3,0-0.5-0.2-0.5-0.5V12h0.5c0.8,0,1.5-0.7,1.5-1.5v-1C22,8.7,21.3,8,20.5,8h-17
		C2.7,8,2,8.7,2,9.5v1C2,11.3,2.7,12,3.5,12H16v1.5c0,0.3-0.2,0.5-0.5,0.5h-1.6c-0.2-0.6-0.8-1-1.4-1h-2c-0.3,0-0.5,0.2-0.5,0.5V19
		H1.5C1.2,19,1,18.8,1,18.5V7h22v7.1C22.8,14,22.7,14,22.5,14z"/>
	<g>
		<path d="M4.5,14h-2C2.2,14,2,13.8,2,13.5S2.2,13,2.5,13h2C4.8,13,5,13.2,5,13.5S4.8,14,4.5,14z"/>
	</g>
	<g>
		<path d="M8.5,14h-2C6.2,14,6,13.8,6,13.5S6.2,13,6.5,13h2C8.8,13,9,13.2,9,13.5S8.8,14,8.5,14z"/>
	</g>
	<g>
		<path d="M4.5,16h-2C2.2,16,2,15.8,2,15.5S2.2,15,2.5,15h2C4.8,15,5,15.2,5,15.5S4.8,16,4.5,16z"/>
	</g>
	<g>
		<path d="M8.5,16h-2C6.2,16,6,15.8,6,15.5S6.2,15,6.5,15h2C8.8,15,9,15.2,9,15.5S8.8,16,8.5,16z"/>
	</g>
	<g>
		<path d="M4.5,18h-2C2.2,18,2,17.8,2,17.5S2.2,17,2.5,17h2C4.8,17,5,17.2,5,17.5S4.8,18,4.5,18z"/>
	</g>
	<g>
		<path d="M8.5,18h-2C6.2,18,6,17.8,6,17.5S6.2,17,6.5,17h2C8.8,17,9,17.2,9,17.5S8.8,18,8.5,18z"/>
	</g>
</g>
</svg>
