<?xml version="1.0" encoding="utf-8"?>
<!-- Generator: Adobe Illustrator 21.0.0, SVG Export Plug-In . SVG Version: 6.00 Build 0)  -->
<svg version="1.0" id="Layer_1" xmlns="http://www.w3.org/2000/svg" xmlns:xlink="http://www.w3.org/1999/xlink" x="0px" y="0px"
	 viewBox="0 0 24 24" enable-background="new 0 0 24 24" xml:space="preserve">
<path d="M23.6,20.4L22,18.8V3.5c0-0.2-0.1-0.4-0.3-0.5l-7-3C14.6,0,14.4,0,14.3,0L7.5,3L0.7,0C0.5,0,0.4,0,0.2,0.1
	C0.1,0.2,0,0.3,0,0.5v20c0,0.2,0.1,0.4,0.3,0.5l7,3c0.1,0,0.1,0,0.2,0s0.1,0,0.2,0l6.8-2.9l6.8,2.9c0.2,0.1,0.3,0,0.5,0
	c0.1-0.1,0.2-0.2,0.2-0.4v-0.6c0.1,0,0.3,0.1,0.4,0.1c0.4,0,0.8-0.1,1.1-0.4l0.1-0.1C24.1,21.9,24.1,20.9,23.6,20.4z M7,22.7l-6-2.6
	V17h6V22.7z M7,16H1V8.3l6,3.5V16z M7,10.6L1,7.1V1.3l6,2.6V10.6z M15,1.3l1.9,0.8L16.2,4c0,0.1-0.1,0.2-0.2,0.3L15,4.7V1.3z
	 M15,5.8l1.4-0.7C16.7,5,17,4.7,17.1,4.3l0.7-1.9L21,3.8v10.8L19.9,14c0-0.2,0.1-0.4,0.1-0.5c0-2.9-2.2-5.2-5-5.5V5.8z M19.7,18
	l-1-1c0.5-0.6,0.8-1.2,1-1.9l1.3,0.7V18C20.6,17.8,20.1,17.8,19.7,18z M11,2.5l3-1.3v3.9l-2.3,1.1c-0.2,0.1-0.4,0-0.5,0
	c-0.1,0-0.2-0.2-0.2-0.4V2.5z M8,3.8L10,3v2.9c0,0.5,0.3,1,0.7,1.3c0.2,0.1,0.5,0.2,0.8,0.2c0.2,0,0.5-0.1,0.7-0.2L14,6.3V8
	c-1.9,0.2-3.6,1.3-4.4,3H8V3.8z M8,12h1.2C9.1,12.5,9,13,9,13.5c0,0.9,0.2,1.7,0.6,2.5H8V12z M14,20.2l-6,2.6V17h2.3
	c0.9,1.1,2.2,1.8,3.7,2V20.2z M10,13.5C10,11,12,9,14.5,9s4.5,2,4.5,4.5S17,18,14.5,18S10,16,10,13.5z M21,22.7l-6-2.6V19
	c1.1-0.1,2.2-0.6,3-1.3l1,1c-0.3,0.6-0.2,1.3,0.2,1.7l1.7,1.7V22.7z M22.9,21.8L22.9,21.8c-0.3,0.3-0.6,0.3-0.8,0.1L20,19.8
	c-0.2-0.2-0.2-0.5,0-0.7l0.1-0.1c0.1-0.1,0.2-0.1,0.4-0.1s0.3,0,0.4,0.1l2.1,2.1C23,21.3,23,21.6,22.9,21.8z"/>
</svg>
