<?xml version="1.0" encoding="utf-8"?>
<!-- Generator: Adobe Illustrator 21.0.0, SVG Export Plug-In . SVG Version: 6.00 Build 0)  -->
<svg version="1.0" id="Layer_1" xmlns="http://www.w3.org/2000/svg" xmlns:xlink="http://www.w3.org/1999/xlink" x="0px" y="0px"
	 viewBox="0 0 24 24" enable-background="new 0 0 24 24" xml:space="preserve">
<g>
	<g>
		<path d="M5.5,5h-3C2.2,5,2,4.8,2,4.5S2.2,4,2.5,4h3C5.8,4,6,4.2,6,4.5S5.8,5,5.5,5z"/>
	</g>
	<g>
		<path d="M4.5,19h-2C2.2,19,2,18.8,2,18.5S2.2,18,2.5,18h2C4.8,18,5,18.2,5,18.5S4.8,19,4.5,19z"/>
	</g>
	<g>
		<path d="M10.5,19h-4C6.2,19,6,18.8,6,18.5S6.2,18,6.5,18h4c0.3,0,0.5,0.2,0.5,0.5S10.8,19,10.5,19z"/>
	</g>
	<g>
		<path d="M10.5,5h-3C7.2,5,7,4.8,7,4.5S7.2,4,7.5,4h3C10.8,4,11,4.2,11,4.5S10.8,5,10.5,5z"/>
	</g>
	<g>
		<path d="M10.5,7h-1C9.2,7,9,6.8,9,6.5S9.2,6,9.5,6h1C10.8,6,11,6.2,11,6.5S10.8,7,10.5,7z"/>
	</g>
	<g>
		<path d="M10.5,9h-1C9.2,9,9,8.8,9,8.5S9.2,8,9.5,8h1C10.8,8,11,8.2,11,8.5S10.8,9,10.5,9z"/>
	</g>
	<g>
		<path d="M10.5,11h-1C9.2,11,9,10.8,9,10.5S9.2,10,9.5,10h1c0.3,0,0.5,0.2,0.5,0.5S10.8,11,10.5,11z"/>
	</g>
	<g>
		<path d="M10.5,13h-1C9.2,13,9,12.8,9,12.5S9.2,12,9.5,12h1c0.3,0,0.5,0.2,0.5,0.5S10.8,13,10.5,13z"/>
	</g>
	<g>
		<path d="M10.5,15h-1C9.2,15,9,14.8,9,14.5S9.2,14,9.5,14h1c0.3,0,0.5,0.2,0.5,0.5S10.8,15,10.5,15z"/>
	</g>
	<g>
		<path d="M10.5,17h-1C9.2,17,9,16.8,9,16.5S9.2,16,9.5,16h1c0.3,0,0.5,0.2,0.5,0.5S10.8,17,10.5,17z"/>
	</g>
	<g>
		<path d="M7.5,7h-5C2.2,7,2,6.8,2,6.5S2.2,6,2.5,6h5C7.8,6,8,6.2,8,6.5S7.8,7,7.5,7z"/>
	</g>
	<g>
		<path d="M6.5,17h-3C2.7,17,2,16.3,2,15.5v-6C2,8.7,2.7,8,3.5,8h3C7.3,8,8,8.7,8,9.5v6C8,16.3,7.3,17,6.5,17z M3.5,9
			C3.2,9,3,9.2,3,9.5v6C3,15.8,3.2,16,3.5,16h3C6.8,16,7,15.8,7,15.5v-6C7,9.2,6.8,9,6.5,9H3.5z"/>
	</g>
	<path d="M23.3,14.6l-1.4-0.8c-0.2-0.1-0.3-0.3-0.2-0.5c0.1-0.4,0.1-0.9,0.1-1.3s0-0.9-0.1-1.3c0-0.2,0.1-0.4,0.2-0.5l1.5-0.8
		c0.7-0.4,1-1.3,0.6-2l-1.5-2.6c-0.2-0.4-0.5-0.6-0.9-0.7c-0.4-0.1-0.8-0.1-1.1,0.2L18.8,5c-0.2,0.1-0.4,0.1-0.6-0.1
		c-0.7-0.5-1.4-1-2.2-1.3c-0.2-0.1-0.3-0.3-0.3-0.5V1.5C15.7,0.7,15,0,14.2,0H1.5C0.7,0,0,0.7,0,1.5v21C0,23.3,0.7,24,1.5,24h12.7
		c0.8,0,1.5-0.7,1.5-1.5v-1.7c0-0.2,0.1-0.4,0.3-0.5c0.8-0.3,1.5-0.7,2.2-1.3c0.2-0.1,0.4-0.2,0.6-0.1l1.4,0.8
		c0.3,0.2,0.8,0.3,1.1,0.2s0.7-0.4,0.9-0.7l1.5-2.6C24.2,16,24,15.1,23.3,14.6z M13,6.5c2.9,0.2,5.2,2.6,5.2,5.5
		c0,2.9-2.3,5.3-5.2,5.5V6.5z M6,1h4v0.5C10,1.8,9.8,2,9.5,2h-3C6.2,2,6,1.8,6,1.5V1z M1.5,1H5v0.5C5,2.3,5.7,3,6.5,3h3
		C10.3,3,11,2.3,11,1.5V1h1v19H1V1.5C1,1.2,1.2,1,1.5,1z M1.5,23C1.2,23,1,22.8,1,22.5V21h11v2H1.5z M22.9,16.2l-1.5,2.6
		c-0.1,0.1-0.2,0.2-0.3,0.2c-0.1,0-0.3,0-0.4-0.1l-1.5-0.8c-0.5-0.3-1.2-0.2-1.7,0.1c-0.6,0.5-1.3,0.9-2,1.1c-0.6,0.2-1,0.8-1,1.4
		v1.7c0,0.3-0.2,0.5-0.5,0.5H13v-4.5c3.4-0.2,6.2-3,6.2-6.5S16.4,5.7,13,5.5V1h1.2c0.3,0,0.5,0.2,0.5,0.5v1.7c0,0.6,0.4,1.2,1,1.4
		c0.7,0.3,1.4,0.7,2,1.1c0.5,0.4,1.2,0.5,1.7,0.1L20.8,5C20.9,4.9,21,4.9,21.1,5c0.1,0,0.2,0.1,0.3,0.2l1.5,2.6
		C23.1,8,23,8.3,22.7,8.5l-1.5,0.8c-0.5,0.3-0.8,0.9-0.7,1.5c0.1,0.4,0.1,0.8,0.1,1.2s0,0.8-0.1,1.2c-0.1,0.6,0.2,1.2,0.7,1.5
		l1.4,0.8C23,15.7,23.1,16,22.9,16.2z"/>
</g>
</svg>
